# xmcd
#
# Track frame offsets:
#	150
#	9601
#	21779
#	33981
#	50879
#	64774
#	80321
#	94588
#	109926
#	123044
#	136763
#	150504
#	163923
#	181012
#
# Disc length: 2588 seconds
#
# Revision: 1
# Processed by: cddbd v1.5.2PL0 Copyright (c) Steve Scherf et al.
# Submitted via: audiograbber 1.83.01
#
DISCID=a70a1a0e
DTITLE=Various Artist - Heimatlieder der Berge
DYEAR=2004
DGENRE=Folklore
TTITLE0=Die Kasermandln - Wenn ich auf hohen Bergen steh'
TTITLE1=Die Kreuzbichler - Ich bin ein Bergeskind
TTITLE2=Kreuzjoch Duo - Ein kleins Kreuz
TTITLE3=Sepp Viellechner - Abendfrieden in den Bergen
TTITLE4=Gradl Buam - Das letzte Alpenglüh'n
TTITLE5=Die Mayrhofner - Der Glockenjodler aus Heiligenbluat
TTITLE6=Trio Melody - Die Berge hat der liebe Gott...
TTITLE7=Die Hinterlechner - Hohe Berge, grüne Täler
TTITLE8=Erich Edlinger - Wenn auf Bergeshöh'n
TTITLE9=Heimatlied Quintett - Spiegeln sich im See die Berge
TTITLE10=Otti und die Alpenfrieden - Das letzte Licht am Cima Tosa
TTITLE11=Erich Edlinger - Zauber der Berge
TTITLE12=Tiroler Nachtschwärmer - Coro Alpino
TTITLE13=Marc Pircher - Da drob'n in die Berg' is der Herrgott dahoam
EXTD=
EXTT0=
EXTT1=
EXTT2=
EXTT3=
EXTT4=
EXTT5=
EXTT6=
EXTT7=
EXTT8=
EXTT9=
EXTT10=
EXTT11=
EXTT12=
EXTT13=
PLAYORDER=
